<?xml version="1.0" encoding="UTF-8"?>
<svg width="193px" height="228px" viewBox="0 0 220 250" version="1.1" xmlns="http://www.w3.org/2000/svg" xmlns:xlink="http://www.w3.org/1999/xlink">
    <!-- Generator: Sketch 50.2 (55047) - http://www.bohemiancoding.com/sketch -->
    <title>jupyter_logo</title>
    <desc>Created with Sketch.</desc>
    <defs></defs>
    <g id="Layouts" stroke="none" stroke-width="1" fill="none" fill-rule="evenodd">
        <g id="Landing-4" transform="translate(-997.000000, -82.000000)" fill-rule="nonzero">
            <g id="Block---Intro" transform="translate(0.000000, -20.000000)">
                <g id="Group">
                    <g id="jupyter_logo" transform="translate(997.000000, 102.000000)">
                        <path d="M178.587352,102.861334 C178.587352,99.3478325 178.587352,96.3245466 178.3458,93.5464096 L183.176873,93.5464096 L183.176873,99.3886739 L183.41839,99.3886739 C183.925482,97.5855064 184.973173,95.9872982 186.416037,94.8159094 C187.858902,93.644516 189.625357,92.9580743 191.470178,92.8518767 C191.977948,92.7842436 192.49223,92.7842436 193,92.8518767 L193,97.9587686 C192.384743,97.8864474 191.763336,97.8864474 191.14808,97.9587686 C189.320578,98.0305851 187.581299,98.7750903 186.255146,100.05324 C184.928993,101.331344 184.106676,103.055628 183.941761,104.904088 C183.791225,105.74005 183.710418,106.587393 183.700243,107.437076 L183.700243,123.329675 L178.386058,123.329675 L178.386058,102.902175 L178.587352,102.861334 Z M149.708999,109.454271 C149.599749,110.839847 149.788224,112.232949 150.261446,113.537348 C150.734668,114.841746 151.481333,116.026282 152.44989,117.009135 C153.418402,117.992035 154.585653,118.749756 155.871018,119.229986 C157.156383,119.710215 158.529157,119.901481 159.894516,119.790613 C162.656117,119.853298 165.399721,119.324288 167.946259,118.238092 L168.872219,122.323601 C165.747324,123.629881 162.387152,124.256222 159.008801,124.162057 C157.03931,124.298899 155.063985,124.001813 153.218305,123.291128 C151.37258,122.580489 149.700226,121.473092 148.315835,120.044977 C146.931471,118.616815 145.867885,116.901663 145.19804,115.017226 C144.528191,113.132743 144.267932,111.123579 144.435113,109.127448 C144.435113,100.139374 149.708999,93.0305975 158.324403,93.0305975 C167.986504,93.0305975 170.402041,101.610121 170.402041,107.084694 C170.453681,107.928228 170.453681,108.774194 170.402041,109.617728 L149.588263,109.617728 L149.708999,109.454271 Z M165.490477,105.368807 C165.645851,104.276508 165.568707,103.163146 165.264198,102.103704 C164.959735,101.044262 164.435008,100.063336 163.725423,99.2270523 C163.015793,98.3908148 162.137811,97.7186308 161.150578,97.2558114 C160.163346,96.7930012 159.089789,96.5503211 158.00235,96.5441261 C155.790347,96.7066103 153.717936,97.7015601 152.191234,99.3340199 C150.664533,100.966434 149.79365,103.118634 149.74929,105.368807 L165.490477,105.368807 Z M132.041596,85 L132.041596,93.5795232 L139.771285,93.5795232 L139.771285,97.6650323 L132.041596,97.6650323 L132.041596,113.761883 C132.041596,117.438841 133.088337,119.563278 136.06749,119.563278 C137.125581,119.580854 138.181322,119.457229 139.207669,119.195615 L139.449232,123.281078 C137.910231,123.822157 136.286262,124.071426 134.658404,124.016497 C133.580371,124.084964 132.500483,123.915954 131.492857,123.521032 C130.48523,123.12611 129.57374,122.514638 128.82088,121.728603 C127.18104,119.502797 126.433,116.729166 126.727442,113.966181 L126.727442,97.624191 L122.137932,97.624191 L122.137932,93.5386819 L126.807933,93.5386819 L126.807933,86.2665032 L132.041596,85 Z M95.8999369,93.5711985 L102.381613,111.179702 C103.06601,113.140728 103.790653,115.510305 104.273779,117.267078 C104.837395,115.469463 105.441256,113.181569 106.165944,111.057132 L112.043714,93.5711985 L117.720211,93.5711985 L109.668468,114.815773 C105.642574,125.0295 103.186792,130.29982 99.4829511,133.486499 C97.6174196,135.215693 95.3430133,136.426019 92.8805254,137 L91.5519848,132.424257 C93.273795,131.850138 94.872278,130.948968 96.262281,129.768699 C98.2263005,128.144408 99.784927,126.072789 100.811501,123.722164 C101.031222,123.315082 101.180989,122.87294 101.254335,122.414783 C101.208573,121.92175 101.0863,121.43918 100.892037,120.984878 L89.9416317,93.4894887 L95.819401,93.4894887 L95.8999369,93.5711985 Z M58.3486401,103.321877 C58.3486401,99.5223489 58.3486401,96.4173803 58.1070873,93.5983882 L62.9381603,93.5983882 L63.1796778,98.7052471 C64.2560381,96.8602058 65.8055755,95.3461353 67.6631031,94.3244598 C69.5206759,93.3027865 71.6166008,92.8118045 73.7274933,92.903856 C80.8935668,92.903856 86.288256,98.9912281 86.288256,108.061031 C86.288256,118.765037 79.8065799,124.076199 72.8015332,124.076199 C71.0086243,124.157377 69.2253924,123.767595 67.6243952,122.944527 C66.0233979,122.121414 64.6588536,120.892916 63.6628032,119.377886 L63.6628032,135.719831 L58.3486401,135.719831 L58.3486401,103.444447 L58.3486401,103.321877 Z M63.6628032,111.288597 C63.6774091,112.02989 63.7582616,112.768292 63.9043659,113.494762 C64.3611283,115.308806 65.4009512,116.916485 66.8592356,118.063392 C68.3175652,119.210345 70.1111072,119.831042 71.9561089,119.827279 C77.6326061,119.827279 80.9741028,115.128966 80.9741028,108.30617 C80.9741028,102.341364 77.8339235,97.2344821 72.1574263,97.2344821 C69.9110108,97.4211637 67.8088456,98.432941 66.2450188,100.080085 C64.6811921,101.72723 63.7631001,103.896684 63.6628032,106.181733 L63.6628032,111.288597 Z M48.1227975,115.255115 C48.1227975,118.319224 48.1227975,121.056511 48.364315,123.426088 L43.5735326,123.426088 L43.2514791,118.564364 C42.2494145,120.284564 40.8163626,121.704786 39.0980659,122.680711 C37.379724,123.656635 35.4374099,124.153476 33.4685518,124.12062 C28.7985508,124.12062 23.2428349,121.54679 23.2428349,111.047036 L23.2428349,93.6019855 L28.6375241,93.6019855 L28.6375241,109.943953 C28.6375241,115.622825 30.3686631,119.422307 35.2399814,119.422307 C36.2421817,119.433275 37.2364234,119.240999 38.1644636,118.856815 C39.0925039,118.472632 39.9355767,117.904295 40.6443023,117.185074 C41.3529827,116.4659 41.9130717,115.610297 42.2916495,114.66856 C42.6701822,113.726778 42.859652,112.717768 42.8488897,111.700727 L42.8488897,93.3977105 L48.2435336,93.3977105 L48.2435336,115.091704 L48.1227975,115.255115 Z M7.89071636,118.477633 L7.89071636,118.314222 L7.89071636,93.3518214 L13.2854055,93.3518214 L13.2854055,120.397818 C13.5360573,122.577506 13.3515616,124.786104 12.7428616,126.891864 C12.1342069,128.997624 11.1138283,130.957365 9.74263672,132.6543 C7.19420005,134.885062 3.92885305,136.091395 0.563625181,136.045231 L0,131.959768 C2.17064564,131.961007 4.26473915,131.145878 5.87776929,129.671873 C7.32710022,127.955987 7.89071636,125.627251 7.89071636,118.477633 Z" id="Combined-Shape" fill="#FFFFFF"></path>
                        <g id="g" transform="translate(5.000000, 0.000000)">
                            <path d="M91.1623126,171.538218 C127.678762,171.538218 159.509683,158.492261 175.990475,139.226238 C169.579917,156.558227 158.013327,171.510635 142.847406,182.070854 C127.681031,192.631163 109.643539,198.292036 91.1623126,198.292036 C72.6815399,198.292036 54.6435944,192.631163 39.4776278,182.070854 C24.311525,171.510635 12.7448898,156.558227 6.33460433,139.226238 C22.8558216,158.492261 54.8078397,171.538218 91.1623126,171.538218 Z M91.1623126,46.2571284 C54.6463167,46.2571284 22.8558216,59.2627097 6.33460433,78.5689723 C12.7448898,61.2371195 24.311525,46.2847114 39.4776278,35.724493 C54.6435944,25.1642746 72.6815399,19.5031747 91.1623126,19.5031747 C109.643539,19.5031747 127.681031,25.1642746 142.847406,35.724493 C158.013327,46.2847114 169.579917,61.2371195 175.990475,78.5689723 C159.469303,59.3030861 127.517239,46.2571284 91.1623126,46.2571284 Z" id="Combined-Shape" fill="#F37726"></path>
                            <path d="M41.1154075,209.030183 C41.3286542,212.447939 40.5194965,215.851812 38.7910643,218.808096 C37.0625866,221.76438 34.4931004,224.139243 31.409962,225.630133 C28.3268236,227.121023 24.8695961,227.660435 21.4787926,227.179637 C18.0879438,226.698794 14.9170113,225.219563 12.369984,222.930353 C9.82295225,220.641143 8.01514231,217.645571 7.17686967,214.325354 C6.33860112,211.005092 6.5078246,207.51053 7.66298132,204.286763 C8.8181385,201.063042 10.9069304,198.256151 13.6632116,196.223694 C16.4195382,194.191228 19.7185548,193.025217 23.1399841,192.87422 C25.3812973,192.754347 27.6242892,193.077197 29.7408304,193.824324 C31.8573263,194.571457 33.8059017,195.72822 35.4751694,197.228542 C37.144437,198.728873 38.5017747,200.543319 39.4695062,202.568313 C40.4372831,204.593262 40.9965792,206.789062 41.1154075,209.030183 Z" id="path10_fill" fill="#FFFFFF" opacity="0.6"></path>
                            <path d="M171.036301,13.3589182 C171.202179,16.0723536 170.556541,18.7737215 169.181554,21.1189144 C167.806567,23.4641526 165.764571,25.3470122 163.315592,26.5277293 C160.866613,27.708401 158.121584,28.1334429 155.430184,27.7487321 C152.738784,27.3639761 150.222837,26.1868883 148.202837,24.3673609 C146.182842,22.5478788 144.750247,20.1682978 144.087552,17.5318045 C143.424856,14.8953112 143.562058,12.1212203 144.481678,9.56298479 C145.401298,7.00474926 147.061709,4.77810443 149.251385,3.16674723 C151.441065,1.55539002 154.060913,0.63224581 156.777132,0.514912807 C158.558013,0.41692667 160.34071,0.671922732 162.022637,1.26523739 C163.704608,1.85854932 165.252688,2.77847975 166.577857,3.97211733 C167.902981,5.16575945 168.979106,6.60955881 169.744253,8.22048956 C170.5094,9.83142032 170.948507,11.5777257 171.036301,13.3589182 Z" id="path7_fill" fill="#FFFFFF" opacity="0.8"></path>
                            <path d="M10.4661904,41.8664359 C8.50727024,41.9205131 6.57607215,41.3942579 4.91547046,40.3538604 C3.25488693,39.3134175 1.93902797,37.8052427 1.13338661,36.0190598 C0.327746155,34.2328316 0.0682930217,32.248305 0.387655763,30.315043 C0.707018505,28.3817809 1.59093682,26.586071 2.92825202,25.1538039 C4.26557176,23.7215187 5.99658568,22.7165799 7.90360069,22.2653691 C9.81057033,21.8141588 11.8084193,21.936823 13.645925,22.6179342 C15.4833853,23.2990491 17.078425,24.5081976 18.2304107,26.0933237 C19.3824418,27.6784589 20.0400128,29.568804 20.1204114,31.5266095 C20.1969533,34.1739001 19.2260911,36.7445662 17.4185761,38.6804142 C15.6110611,40.6163075 13.112763,41.7611848 10.4661904,41.8664359 Z" id="path11_fill" fill="#FFFFFF"></path>
                        </g>
                    </g>
                </g>
            </g>
        </g>
    </g>
</svg>